<?xml version="1.0" standalone="no"?>
<!DOCTYPE svg PUBLIC "-//W3C//DTD SVG 20010904//EN"
 "http://www.w3.org/TR/2001/REC-SVG-20010904/DTD/svg10.dtd">
<svg version="1.0" xmlns="http://www.w3.org/2000/svg"
 width="1440.000000pt" height="1080.000000pt" viewBox="0 0 1440.000000 1080.000000"
 preserveAspectRatio="xMidYMid meet">
<metadata>
Created by potrace 1.12, written by Peter Selinger 2001-2015
</metadata>
<g transform="translate(0.000000,1080.000000) scale(0.100000,-0.100000)"
fill="#000000" stroke="none">
<path d="M0 5400 l0 -5400 7200 0 7200 0 0 5400 0 5400 -7200 0 -7200 0 0
-5400z m7160 2461 c59 -9 70 -17 70 -49 0 -43 -13 -53 -71 -56 -30 -2 -72 -7
-94 -11 -56 -10 -151 -64 -164 -92 -6 -13 -18 -26 -26 -29 -8 -4 -15 -14 -15
-24 0 -10 -7 -20 -15 -24 -8 -3 -15 -12 -15 -20 0 -7 -12 -21 -26 -31 -15 -9
-24 -13 -20 -7 3 6 -8 15 -25 21 -17 6 -33 20 -36 31 -3 11 -16 23 -29 26 -13
3 -24 10 -24 15 0 5 -6 9 -13 9 -7 0 -18 9 -25 20 -11 18 -10 25 8 50 44 62
138 114 265 148 124 32 168 40 190 35 11 -3 40 -8 65 -12z m471 -162 c18 -9
19 -12 6 -27 -8 -9 -22 -42 -31 -72 -10 -30 -24 -67 -32 -82 -9 -17 -11 -28
-5 -28 6 0 11 -4 11 -9 0 -11 -106 -114 -123 -120 -7 -2 -26 -15 -44 -28 -95
-72 -211 -104 -257 -70 -17 12 -11 18 62 65 47 31 142 111 228 193 110 105
149 137 156 127 6 -8 7 0 3 25 -6 40 -4 43 26 26z m-919 -178 c152 -146 170
-162 253 -219 75 -51 123 -64 246 -69 l97 -4 108 73 c60 41 129 88 154 105 25
17 55 34 68 38 19 5 22 3 22 -19 0 -14 -10 -33 -25 -44 -14 -11 -41 -44 -61
-73 -20 -30 -43 -57 -52 -62 -10 -4 -5 -5 13 -2 28 5 29 4 11 -10 -11 -8 -25
-15 -32 -15 -6 0 -43 -16 -80 -35 -38 -19 -74 -35 -80 -35 -6 0 -22 -8 -35
-18 -13 -11 -35 -21 -47 -25 -21 -5 -23 -3 -17 16 22 69 1 81 -78 43 -74 -34
-137 -56 -168 -56 -40 0 -158 49 -179 75 -25 30 -81 58 -93 46 -8 -8 -8 -11 2
-11 7 0 33 -18 58 -40 55 -48 137 -88 195 -96 24 -3 79 1 122 9 44 8 85 13 93
10 21 -8 -31 -51 -101 -84 -63 -30 -91 -35 -100 -20 -4 5 -25 12 -49 16 -45 8
-88 27 -125 56 -13 10 -36 20 -51 24 -16 3 -37 15 -47 26 -9 10 -23 19 -29 19
-17 0 -181 126 -220 169 -17 19 -37 32 -43 30 -14 -5 51 -79 99 -113 98 -71
226 -156 235 -156 5 0 35 -18 68 -40 32 -22 66 -40 76 -40 9 0 20 -3 24 -7 4
-5 11 -8 14 -9 17 -2 77 -20 186 -55 105 -34 132 -39 215 -39 53 0 120 -3 149
-6 45 -6 52 -10 52 -29 0 -18 -6 -22 -31 -23 -18 0 -37 -6 -42 -11 -14 -14
-77 -14 -77 0 0 11 -80 9 -245 -6 -50 -5 -87 -2 -130 9 -38 10 -62 13 -69 6
-6 -6 -4 -11 5 -13 8 -2 30 -9 50 -16 19 -6 68 -11 107 -11 40 0 72 -4 72 -9
0 -5 -24 -19 -52 -29 -88 -33 -262 -18 -425 37 -34 12 -67 21 -73 21 -6 0 -47
18 -92 40 -47 24 -88 38 -98 35 -13 -4 -30 6 -55 31 -33 32 -36 40 -30 73 5
28 2 41 -9 51 -23 18 -20 77 5 112 19 26 21 40 17 104 -5 68 -3 77 19 100 27
29 53 95 53 136 0 15 5 40 12 55 17 40 77 113 93 113 7 0 73 -58 147 -129z
m1082 -237 c17 -7 22 -44 7 -44 -5 0 -13 9 -16 20 -4 11 -11 17 -17 14 -7 -4
-8 -2 -4 4 8 14 9 14 30 6z m-107 -51 c4 -9 2 -18 -5 -21 -6 -2 -8 -10 -5 -18
3 -9 -1 -14 -12 -14 -13 0 -16 -6 -11 -23 5 -20 0 -24 -39 -36 -27 -8 -45 -19
-45 -28 0 -12 10 -13 56 -7 55 6 56 6 42 -15 -7 -11 -16 -21 -21 -21 -14 0
-117 -80 -119 -93 0 -7 -2 -19 -2 -27 -1 -13 -26 -15 -161 -15 -143 1 -166 3
-217 24 -32 12 -58 28 -58 34 0 12 73 47 98 47 6 0 12 3 12 8 0 19 283 138
302 126 10 -6 98 36 98 47 0 5 15 11 34 15 24 4 33 10 29 20 -3 8 0 14 6 14 7
0 15 -8 18 -17z m-85 -332 c10 -43 -24 -73 -35 -31 -4 14 0 20 11 20 13 1 11
4 -6 13 -26 15 -21 27 8 20 10 -3 21 -12 22 -22z m1682 4 c-10 -8 -25 -15 -32
-15 -7 0 -23 -7 -35 -15 -13 -8 -38 -14 -57 -14 -19 1 -55 -4 -80 -10 -25 -6
-67 -11 -93 -11 -43 0 -47 2 -33 15 8 8 22 15 31 15 11 0 15 5 12 14 -12 30
16 36 162 36 129 0 143 -2 125 -15z m2236 10 c0 -6 -38 -45 -44 -45 -2 0 -2 9
1 20 4 14 0 20 -11 20 -9 0 -16 -8 -16 -20 0 -13 -10 -24 -25 -30 -27 -10 -34
-40 -10 -40 8 0 15 -5 15 -11 0 -7 -10 -9 -27 -5 -39 10 -77 8 -81 -4 -6 -16
-20 -11 -27 9 -3 11 -19 22 -34 26 -30 6 -51 45 -26 45 8 0 17 -4 20 -10 9
-15 35 -12 35 4 0 7 -10 21 -22 29 -21 15 -13 16 115 16 75 1 137 -1 137 -4z
m50 -9 c0 -21 -21 -31 -31 -15 -14 22 -11 29 11 29 11 0 20 -6 20 -14z m1332
7 c-23 -3 -36 -12 -44 -29 -12 -26 -24 -31 -31 -11 -4 9 -7 9 -15 -1 -7 -10
-14 -8 -35 8 -15 12 -27 26 -27 31 0 5 41 8 93 7 50 0 77 -3 59 -5z m91 -8
c-3 -9 -8 -14 -10 -11 -3 3 -2 9 2 15 9 16 15 13 8 -4z m-263 -9 c0 -12 -29
-44 -31 -35 -7 34 -4 49 13 49 10 0 18 -6 18 -14z m-3807 -26 c-3 -11 -14 -20
-24 -20 -21 0 -26 26 -6 33 25 11 35 7 30 -13z m-164 1 c9 -6 10 -10 2 -16
-16 -9 -44 2 -36 15 8 12 16 12 34 1z m737 -65 c35 -36 66 -66 69 -66 3 0 5
14 5 31 0 24 3 30 16 25 21 -8 178 -15 562 -26 270 -7 327 -11 347 -24 40 -26
26 -70 -28 -89 -9 -4 -21 -17 -27 -31 -8 -22 -45 -56 -61 -56 -4 0 -6 8 -5 18
1 14 -6 16 -34 14 -19 -2 -42 -11 -51 -21 -8 -11 -24 -21 -35 -24 -17 -4 -17
-5 3 -6 12 0 25 -6 28 -12 4 -6 13 -8 21 -5 8 3 14 3 14 0 0 -10 -28 -34 -39
-34 -6 0 -11 -4 -11 -9 0 -5 -13 -12 -30 -16 -16 -4 -30 -10 -30 -15 0 -14
-85 -50 -118 -50 -50 0 -237 -92 -250 -122 -2 -5 -9 -8 -16 -8 -7 0 -33 -15
-57 -33 -24 -19 -60 -42 -79 -52 -19 -9 -48 -30 -65 -45 -16 -15 -47 -34 -67
-41 -21 -7 -38 -17 -38 -21 0 -4 -11 -8 -24 -8 -14 0 -27 -4 -31 -9 -3 -5 -31
-15 -63 -21 -31 -6 -79 -20 -107 -30 -27 -11 -66 -22 -85 -24 -130 -17 -207
-31 -229 -42 -14 -8 -44 -14 -66 -14 -74 0 -247 -39 -314 -71 -36 -17 -86 -37
-111 -45 -55 -18 -110 -46 -110 -56 0 -3 -8 -9 -18 -12 -10 -3 -39 -26 -65
-51 -27 -25 -52 -45 -58 -45 -5 0 -9 -6 -9 -13 0 -16 -109 -127 -125 -127 -6
0 -18 9 -28 20 -13 15 -29 20 -71 20 -30 0 -68 -5 -83 -11 -15 -6 -37 -15 -48
-20 -22 -9 -85 -18 -85 -12 0 2 18 21 39 42 28 27 45 56 56 95 9 30 23 69 32
86 8 17 16 39 17 48 2 9 11 17 21 17 10 0 20 6 23 13 2 6 10 12 18 12 9 0 13
4 10 8 -6 10 101 108 143 132 14 8 28 17 31 20 3 3 34 27 69 54 68 52 163 96
206 96 29 0 33 -15 8 -29 -17 -9 -17 -11 2 -25 20 -15 35 -14 88 6 26 10 37
28 17 28 -5 0 -10 13 -10 30 0 23 -5 31 -24 36 -13 3 -33 1 -44 -5 -12 -6 -34
-11 -51 -11 -43 0 -119 -27 -169 -61 -24 -16 -45 -29 -48 -29 -3 0 -38 -22
-77 -49 -40 -27 -85 -52 -102 -56 l-30 -7 28 24 c15 13 27 33 27 43 0 25 -34
119 -54 150 -14 21 -13 24 21 56 54 52 76 104 74 171 -2 62 -16 89 -134 247
l-55 73 21 39 c24 46 45 50 53 11 7 -35 68 -104 114 -128 19 -11 39 -25 43
-32 6 -9 19 -11 38 -7 18 4 36 2 44 -5 20 -17 20 8 0 34 -8 11 -15 26 -15 35
0 8 -7 23 -16 33 -31 34 -3 47 128 61 15 2 38 12 50 24 87 79 151 67 305 -59
67 -54 93 -68 93 -50 0 11 -49 62 -90 94 -34 27 -35 27 -10 28 100 6 158 8
329 11 185 3 196 4 260 31 50 21 78 27 115 24 46 -3 54 -8 112 -70z m3299 44
c3 -5 -1 -10 -10 -10 -9 0 -13 5 -10 10 3 6 8 10 10 10 2 0 7 -4 10 -10z
m-7986 -27 c-5 -14 -9 -33 -8 -42 5 -54 8 -52 -126 -49 -69 2 -125 0 -125 -4
0 -5 -17 -8 -37 -8 -31 0 -34 2 -21 13 13 10 13 16 2 37 -9 15 -14 19 -15 10
0 -8 -5 -1 -10 15 -16 54 -14 55 175 55 l176 0 -11 -27z m45 -8 c3 -9 0 -15
-9 -15 -9 0 -12 6 -9 15 4 8 7 15 9 15 2 0 5 -7 9 -15z m6380 6 c3 -5 -1 -12
-10 -15 -27 -10 -44 -7 -44 9 0 16 45 21 54 6z m234 -10 c3 -8 -1 -12 -9 -9
-7 2 -15 10 -17 17 -3 8 1 12 9 9 7 -2 15 -10 17 -17z m-205 -23 c33 -16 35
-28 4 -28 -23 0 -47 17 -47 32 0 11 12 10 43 -4z m87 -11 c0 -22 -32 -47 -60
-47 -23 0 -7 19 18 22 21 2 27 8 26 26 0 12 3 22 8 22 4 0 8 -11 8 -23z
m-5142 -9 c24 -24 13 -61 -32 -108 -38 -39 -45 -54 -55 -109 -6 -35 -8 -68 -5
-72 3 -5 0 -9 -5 -9 -6 0 -11 -7 -11 -16 0 -11 -5 -14 -16 -10 -11 4 -15 2
-11 -8 5 -14 -10 -36 -25 -36 -4 0 -8 11 -8 24 0 13 -6 27 -12 30 -10 4 -10 8
-2 11 14 7 -4 65 -20 65 -19 0 -76 -72 -76 -96 0 -30 -22 -66 -74 -119 -45
-47 -80 -120 -71 -152 6 -27 81 -65 111 -57 14 4 24 -2 34 -20 11 -21 16 -23
27 -14 17 14 24 6 54 -62 11 -25 28 -59 37 -77 19 -37 10 -54 -15 -31 -33 29
-97 60 -142 68 -25 5 -63 13 -84 18 -66 17 -351 -11 -418 -41 -19 -8 -41 -18
-49 -20 -16 -6 55 -8 275 -7 96 1 142 5 148 13 6 8 7 7 4 -4 -4 -12 11 -19 73
-33 91 -20 120 -37 113 -66 -7 -26 -8 -27 -110 -56 -48 -14 -94 -34 -103 -44
-9 -10 -28 -22 -43 -25 -15 -4 -30 -11 -33 -16 -3 -5 -18 -9 -34 -9 -16 0 -31
-4 -34 -8 -3 -5 -29 -14 -59 -21 -30 -6 -69 -23 -88 -36 -18 -14 -40 -25 -49
-25 -9 0 -21 -5 -27 -11 -8 -8 -14 -5 -24 12 -6 13 -27 40 -46 59 -18 19 -33
39 -33 46 0 6 -9 19 -20 29 -11 10 -20 24 -20 31 0 7 -11 33 -25 58 -27 48
-33 106 -12 106 21 1 -64 27 -178 54 -155 37 -249 66 -328 100 -42 18 -97 21
-97 6 0 -5 8 -10 18 -10 20 -1 110 -31 133 -45 9 -5 21 -19 28 -30 11 -17 12
-18 7 -1 -5 14 -2 17 10 12 8 -3 19 -6 24 -6 9 0 6 -133 -4 -149 -4 -6 -4 -15
-1 -21 4 -6 -33 -10 -104 -10 l-111 0 0 70 c0 68 -1 70 -25 70 -24 0 -25 2
-25 64 0 42 -4 66 -12 69 -7 2 -10 8 -5 12 4 5 13 3 19 -3 14 -14 38 -16 38
-4 0 5 -10 13 -22 19 -30 14 -78 34 -103 43 -88 33 -178 70 -282 116 -67 30
-124 54 -126 54 -3 0 -55 29 -116 64 -166 95 -231 159 -231 227 0 36 2 39 43
51 26 8 103 13 207 14 91 0 327 3 524 7 198 4 368 5 378 1 10 -3 18 -12 18
-20 0 -19 14 -18 31 3 26 31 103 73 133 73 45 0 65 -16 31 -24 -32 -8 -105
-84 -105 -108 0 -21 9 -22 33 -3 11 7 28 12 39 10 21 -4 69 19 127 60 21 16
50 26 75 27 49 2 210 -3 214 -7 2 -1 -6 -19 -18 -39 -22 -40 -26 -66 -10 -66
6 0 10 5 10 10 0 22 54 91 88 112 19 12 60 27 91 34 52 12 57 12 76 -6 15 -16
16 -20 4 -20 -30 0 -82 -91 -63 -110 17 -16 89 2 124 30 30 25 33 32 23 48
-11 19 -7 20 90 26 121 9 209 8 219 -2 4 -4 -8 -32 -28 -61 -23 -33 -33 -59
-29 -69 6 -15 9 -14 27 8 11 14 34 52 50 85 41 82 78 111 106 83z m362 -3 c17
-9 30 -19 30 -24 0 -5 11 -12 25 -15 14 -4 25 -13 25 -21 0 -11 -7 -14 -23
-10 -15 4 -32 -1 -49 -14 -33 -26 -64 -27 -78 -2 -15 30 -12 41 13 41 12 0 29
4 37 10 12 8 12 10 -2 15 -19 7 -32 35 -17 35 5 0 23 -7 39 -15z m-1713 -10
c0 -10 -9 -15 -26 -14 -17 1 -20 3 -8 6 9 2 17 9 17 14 0 5 4 9 8 9 5 0 9 -7
9 -15z m6338 -5 c-3 -5 -13 -10 -21 -10 -8 0 -14 5 -14 10 0 6 9 10 21 10 11
0 17 -4 14 -10z m2481 -35 c131 -22 241 -47 359 -82 54 -16 135 -50 135 -57 0
-3 -87 -4 -192 -3 -179 1 -203 -1 -338 -30 -168 -35 -533 -128 -560 -143 -10
-6 -27 -10 -37 -10 -33 0 -73 -24 -73 -44 0 -16 5 -18 40 -12 23 3 49 10 58
15 22 11 138 47 181 56 38 8 39 12 -21 -76 -21 -31 -52 -90 -69 -130 -59 -143
-84 -322 -48 -345 5 -3 9 -19 9 -35 0 -17 18 -65 39 -107 66 -128 75 -163 60
-241 -7 -36 -25 -91 -40 -121 -16 -30 -36 -73 -45 -95 -10 -22 -42 -76 -73
-121 -80 -117 -230 -226 -406 -294 -33 -13 -65 -27 -70 -31 -19 -14 -147 -31
-193 -26 -26 3 -90 15 -142 26 -102 22 -176 36 -280 52 -36 5 -78 14 -95 19
-62 21 -443 99 -510 105 -38 3 -83 10 -100 15 -16 4 -61 14 -100 20 -38 7 -88
16 -110 21 -22 4 -116 17 -210 29 -200 24 -382 49 -410 56 -11 3 -58 10 -105
14 -47 5 -123 14 -170 20 -47 6 -130 15 -185 20 -55 5 -147 18 -204 30 -114
23 -154 23 -159 -1 -2 -13 9 -18 55 -23 32 -4 85 -11 118 -16 33 -5 102 -14
154 -20 51 -6 141 -18 200 -26 99 -14 174 -24 331 -43 36 -5 101 -14 145 -20
44 -7 163 -23 265 -37 102 -15 212 -30 245 -34 33 -5 85 -13 115 -19 30 -5 83
-15 118 -21 138 -23 511 -112 535 -127 4 -3 32 -8 60 -13 93 -13 262 -61 275
-78 6 -9 12 -11 12 -6 0 7 25 7 73 2 70 -9 128 -7 193 7 34 8 33 10 60 -90 19
-66 28 -276 16 -345 -10 -58 -67 -220 -98 -282 -59 -117 -108 -180 -193 -247
-47 -37 -97 -72 -111 -76 -14 -4 -43 -15 -65 -25 -205 -90 -202 -89 -335 -92
-69 -2 -174 1 -235 5 -107 9 -146 19 -290 82 -16 7 -104 43 -195 80 -91 37
-183 75 -205 85 -205 92 -808 286 -853 275 -33 -8 -22 -29 19 -37 19 -3 51
-11 72 -17 20 -6 52 -15 70 -20 109 -31 385 -122 447 -148 36 -15 53 -22 105
-41 17 -6 99 -39 183 -74 133 -54 151 -64 136 -75 -10 -7 -25 -13 -35 -13 -9
0 -42 -13 -74 -29 l-57 -29 -31 26 c-17 15 -37 35 -46 45 -10 11 -30 17 -59
17 -28 0 -45 5 -48 15 -3 8 -15 17 -27 21 -12 4 -33 16 -48 26 -15 11 -44 22
-65 25 -22 2 -45 12 -52 21 -15 20 -98 52 -133 52 -14 0 -42 13 -63 28 -33 25
-45 28 -92 24 -39 -3 -63 1 -91 15 -26 13 -53 18 -83 15 -121 -9 -162 -6 -176
13 -10 14 -14 15 -14 4 -1 -8 -12 11 -25 41 -52 114 -44 110 -218 145 -37 8
-91 21 -120 29 -28 8 -97 24 -152 36 -55 12 -132 33 -172 46 -39 13 -83 24
-98 24 -15 0 -61 18 -102 40 -49 26 -90 40 -113 40 -36 0 -71 22 -135 88 -12
12 -27 22 -32 22 -6 0 -13 10 -16 22 -4 12 -9 19 -13 15 -10 -10 -76 21 -91
43 -8 11 -21 20 -29 20 -8 0 -17 13 -20 29 -4 17 -13 32 -21 35 -8 4 -13 13
-9 21 8 22 -16 61 -36 57 -11 -2 -18 3 -18 12 0 9 7 16 15 16 8 0 15 4 15 9 0
5 60 -35 133 -90 112 -85 169 -118 382 -224 252 -125 514 -225 552 -211 25 10
7 20 -117 65 -63 23 -123 46 -132 52 -10 5 -24 9 -31 9 -8 0 -40 13 -73 29
-32 16 -104 50 -159 75 -55 26 -121 58 -147 72 -27 13 -53 24 -59 24 -10 0
-53 33 -148 115 -62 53 -151 148 -151 160 0 14 113 117 138 126 9 3 49 5 89 3
63 -2 78 -6 115 -33 39 -28 46 -30 80 -21 21 6 40 15 43 20 4 6 24 10 46 10
21 0 48 5 58 12 17 10 23 8 40 -13 17 -21 22 -22 40 -11 29 17 38 16 87 -13
39 -23 42 -28 31 -45 -9 -16 -9 -24 1 -40 6 -11 12 -35 12 -53 0 -18 6 -41 13
-51 12 -16 18 -17 55 -5 24 7 44 20 47 31 7 21 38 24 53 6 16 -20 18 -64 4
-81 -11 -13 -10 -16 7 -22 11 -3 38 -7 61 -8 34 -1 45 4 70 31 16 18 36 32 44
32 24 0 46 -12 40 -22 -3 -5 -2 -17 2 -26 4 -9 8 -26 8 -37 1 -23 46 -36 46
-13 0 8 16 28 35 45 19 17 35 38 35 47 0 9 4 16 10 16 5 0 7 -7 4 -15 -5 -12
2 -15 32 -15 40 0 76 -24 68 -45 -8 -21 15 -28 46 -15 24 10 28 17 27 43 -3
41 28 51 42 14 6 -14 19 -28 31 -32 12 -4 26 -20 32 -36 16 -45 44 -56 74 -28
13 12 24 28 24 36 0 7 8 13 18 13 11 0 24 13 33 33 10 23 21 32 39 33 13 1 26
7 28 14 8 24 91 100 109 100 25 1 63 35 63 57 0 12 -15 27 -39 40 -39 21 -40
21 -57 2 -12 -13 -15 -29 -11 -53 6 -38 -12 -63 -38 -52 -19 7 -21 82 -2 90
16 7 -57 74 -103 93 -19 8 -60 15 -92 16 -55 0 -73 9 -45 21 12 5 -12 2 -70
-9 -19 -4 -24 -3 -14 4 20 13 -39 24 -70 12 -17 -6 -35 -5 -58 5 -30 13 -37
12 -57 -1 -30 -20 -59 -19 -95 2 -39 24 -37 43 5 43 37 0 62 21 52 45 -4 11
-22 15 -77 15 -64 0 -142 17 -191 41 -10 5 -25 9 -34 9 -24 0 -134 64 -179
105 -22 19 -43 35 -47 35 -13 0 -59 80 -52 91 3 5 1 15 -4 22 -6 7 -18 41 -27
77 -22 85 -50 134 -96 166 -35 24 -58 64 -37 64 5 0 7 4 4 9 -3 5 0 13 7 19
26 21 277 29 336 10 22 -7 64 -8 115 -3 117 10 189 14 396 19 104 2 186 8 187
13 8 23 -32 34 -150 42 -82 5 -132 13 -146 23 -20 14 -20 15 17 26 23 7 103
11 207 10 133 -1 185 2 240 16 210 53 362 76 496 76 38 0 59 4 59 12 0 24
-449 -21 -595 -61 -58 -15 -157 -13 -255 6 -47 9 -101 16 -122 16 -29 -1 -37
3 -42 21 -10 36 -7 66 7 66 7 1 5 6 -5 14 -24 18 -23 39 1 31 26 -8 68 30 46
42 -17 10 -10 22 34 52 32 23 38 24 165 18 118 -5 463 14 484 27 4 2 57 12
117 21 61 9 137 21 170 26 33 6 87 14 120 19 33 5 116 20 185 34 69 15 172 35
230 46 119 21 118 21 330 85 85 26 194 58 243 71 48 12 91 25 95 28 10 6 147
34 224 45 35 6 108 17 163 26 132 22 216 32 355 45 180 16 214 20 219 26 3 3
129 4 281 3 233 -1 297 -5 416 -24z m-5756 -45 c0 -5 -5 -10 -11 -10 -5 0 -7
5 -4 10 3 6 8 10 11 10 2 0 4 -4 4 -10z m-1638 -67 c41 -98 58 -144 79 -206
12 -37 37 -84 55 -106 19 -21 34 -46 34 -55 0 -19 27 -35 51 -29 15 4 19 0 19
-20 0 -14 -3 -27 -8 -29 -4 -1 -26 -25 -49 -53 -47 -58 -63 -95 -39 -95 9 0
16 6 16 13 0 7 18 30 40 52 l39 38 58 -17 c32 -10 79 -23 104 -31 25 -7 67
-23 93 -34 26 -12 50 -20 55 -17 4 3 17 -5 28 -17 11 -12 35 -30 54 -40 27
-15 30 -20 18 -28 -10 -8 -2 -9 26 -4 22 4 36 3 32 -1 -4 -5 21 -14 55 -21 80
-17 86 -18 128 -9 l35 7 -41 -38 c-26 -24 -68 -47 -110 -62 -69 -25 -88 -29
-199 -50 -33 -7 -69 -15 -80 -20 -34 -14 -91 -31 -103 -31 -16 0 -82 -43 -82
-52 0 -14 27 -8 51 10 13 10 47 24 74 31 28 7 75 18 105 26 30 8 76 19 103 24
98 22 138 34 143 42 3 5 13 9 22 9 35 1 158 79 251 157 14 13 42 26 61 29 36
7 100 56 185 141 43 43 48 45 98 43 88 -4 109 -3 180 5 l67 7 -2 -44 c-4 -49
-10 -57 -172 -218 -52 -52 -93 -97 -90 -101 2 -4 -3 -12 -12 -19 -12 -11 -17
-11 -27 0 -9 10 -9 13 1 17 20 8 14 26 -7 20 -12 -3 -22 1 -25 9 -7 18 -31 18
-83 -2 -34 -13 -43 -22 -43 -41 0 -28 -23 -27 -28 2 -3 11 17 37 52 72 51 49
63 73 35 73 -6 0 -45 -31 -87 -68 -79 -71 -179 -147 -220 -169 -13 -7 -42 -17
-65 -23 -60 -16 -97 -31 -97 -41 0 -5 -7 -9 -15 -9 -8 0 -15 -4 -15 -8 0 -18
26 -32 59 -34 30 -1 28 -2 -14 -7 -27 -4 -58 -3 -68 2 -9 4 -45 9 -80 11 -34
2 -101 7 -149 11 -105 10 -210 -14 -170 -39 5 -3 36 3 70 12 51 13 68 14 95 4
18 -7 47 -12 63 -13 27 -1 27 -2 -11 -14 -22 -7 -56 -22 -75 -33 -20 -12 -55
-28 -79 -36 -50 -18 -68 -12 -141 54 -42 38 -43 41 -17 34 46 -11 31 25 -17
41 -22 8 -51 22 -65 33 -15 11 -38 23 -51 27 -14 4 -52 23 -86 41 -33 19 -69
34 -80 34 -10 1 -37 13 -59 28 -33 23 -43 39 -58 87 -10 33 -27 79 -38 102
-10 24 -19 48 -19 53 0 6 -16 40 -35 76 l-35 65 19 28 c21 29 71 73 139 121
37 27 42 34 42 70 0 22 5 40 10 40 6 0 10 -35 10 -86 0 -61 3 -83 11 -78 21
12 5 211 -20 268 -22 48 -22 96 0 96 6 0 22 9 36 20 31 24 43 17 65 -37z m933
-29 c-15 -12 -39 -24 -52 -27 -20 -4 -24 -1 -21 17 4 26 40 45 75 38 l27 -5
-29 -23z m3155 -25 c0 -5 -4 -9 -10 -9 -5 0 -10 4 -10 8 0 5 -15 7 -32 6 l-33
-3 30 8 c33 8 55 4 55 -10z m-2482 -19 c17 -11 32 -27 32 -35 0 -8 8 -15 18
-15 12 0 14 -2 4 -8 -9 -6 -6 -12 12 -20 21 -9 24 -9 19 3 -3 10 1 15 12 15 9
0 14 4 10 10 -6 10 15 50 27 50 14 0 58 -87 58 -114 0 -15 -4 -25 -10 -21 -5
3 -21 -2 -36 -11 -21 -14 -25 -23 -20 -45 4 -22 2 -27 -9 -23 -9 4 -16 -3 -20
-19 -8 -29 -57 -77 -79 -77 -29 0 -83 41 -104 79 -12 22 -28 41 -35 44 -21 7
59 206 83 207 3 0 20 -9 38 -20z m-1488 -104 c0 -7 14 -32 31 -55 17 -24 28
-45 25 -48 -9 -9 -66 58 -66 77 0 10 -3 26 -7 36 -4 12 -3 15 5 10 7 -4 12
-13 12 -20z m300 -66 c25 0 50 -4 56 -8 5 -5 27 -14 50 -20 22 -7 49 -21 60
-33 18 -20 18 -21 -6 -40 -14 -10 -35 -19 -47 -19 -12 0 -27 -9 -33 -19 -8
-16 -5 -26 16 -51 33 -39 61 -53 99 -52 40 2 95 -32 95 -58 0 -11 4 -20 9 -20
13 0 21 -54 8 -62 -15 -9 -49 6 -130 58 -77 50 -197 164 -197 188 0 8 -11 38
-25 68 -27 58 -34 101 -13 80 7 -7 33 -12 58 -12z m-70 -175 c0 -8 -4 -15 -10
-15 -5 0 -10 7 -10 15 0 8 5 15 10 15 6 0 10 -7 10 -15z m-56 -10 c-4 -8 -8
-15 -10 -15 -2 0 -4 7 -4 15 0 8 4 15 10 15 5 0 7 -7 4 -15z m36 -25 c0 -5 -4
-10 -10 -10 -5 0 -10 5 -10 10 0 6 5 10 10 10 6 0 10 -4 10 -10z m80 -30 c16
0 32 -4 35 -10 11 -18 -49 -10 -72 9 -23 19 -32 38 -13 26 6 -3 11 0 11 7 1 7
4 3 6 -9 3 -18 11 -23 33 -23z m-730 -26 c0 -8 -4 -14 -10 -14 -5 0 -10 9 -10
21 0 11 5 17 10 14 6 -3 10 -13 10 -21z m2063 -40 c9 -9 -16 -44 -30 -44 -7 0
-13 5 -13 10 0 6 5 10 10 10 6 0 10 7 10 15 0 15 12 20 23 9z m22 -104 c-10
-11 -21 -18 -23 -15 -3 3 3 12 14 20 27 20 30 18 9 -5z m-3183 -89 c-2 -23 -8
-41 -13 -41 -10 0 -12 34 -3 67 10 36 20 18 16 -26z m3911 -20 c9 -9 9 -14 -1
-20 -7 -4 -10 -15 -7 -24 4 -10 -2 -21 -20 -33 -25 -16 -32 -16 -131 1 -57 10
-104 21 -104 25 0 4 21 13 47 20 26 6 53 16 59 21 30 25 135 32 157 10z
m-1258 -81 c4 -6 -1 -7 -12 -4 -17 5 -17 5 0 -9 17 -14 14 -17 -37 -45 -31
-17 -56 -26 -56 -22 0 5 -3 16 -7 26 -4 12 -3 15 5 10 7 -4 12 -1 12 8 0 9 6
16 14 16 7 0 19 7 26 15 14 17 46 20 55 5z m962 -26 c3 -9 28 -37 55 -62 26
-26 48 -50 48 -54 0 -21 -41 -50 -77 -55 -48 -6 -102 19 -153 72 l-35 36 42
40 c33 30 50 39 78 39 24 0 38 -5 42 -16z m-2183 -63 c16 -17 28 -33 25 -35
-6 -6 -89 64 -89 75 0 15 31 -5 64 -40z m-206 12 c23 -15 42 -32 42 -38 1 -16
37 -55 52 -56 7 0 4 -4 -7 -8 -11 -5 -25 -5 -31 0 -6 5 -86 10 -179 13 -193 5
-244 -5 -350 -70 -33 -19 -76 -44 -95 -53 -19 -9 -44 -22 -55 -28 -59 -32 -73
-35 -94 -24 -24 13 -41 42 -41 70 0 24 47 81 67 81 8 0 36 11 62 25 25 13 80
34 121 45 41 12 89 25 106 31 17 5 64 9 106 9 48 0 86 6 104 15 17 8 55 15 89
15 49 0 69 -5 103 -27z m1534 -15 c-7 -7 -12 -8 -12 -2 0 14 12 26 19 19 2 -3
-1 -11 -7 -17z m-14 -31 c2 -10 -2 -16 -10 -15 -7 2 -12 -3 -10 -10 1 -8 -6
-16 -17 -19 -11 -3 -22 -11 -25 -19 -3 -8 -10 -14 -16 -14 -5 0 -19 -9 -30
-20 -19 -19 -60 -28 -60 -12 1 13 55 71 95 102 43 32 68 35 73 7z m759 -64
c51 -54 62 -69 50 -78 -9 -7 -11 -19 -6 -37 5 -20 4 -25 -7 -21 -8 3 -14 0
-14 -6 0 -6 -12 -11 -27 -11 -22 0 -25 -2 -13 -10 8 -5 11 -10 6 -10 -15 0
-123 61 -157 89 l-33 28 28 38 c16 21 42 45 57 54 16 9 29 19 29 24 0 20 28 1
87 -60z m-949 10 c-14 -17 -28 -16 -28 1 0 8 9 14 19 13 15 -1 17 -4 9 -14z
m267 7 c-3 -5 -10 -10 -16 -10 -5 0 -9 5 -9 10 0 6 7 10 16 10 8 0 12 -4 9
-10z m-305 -10 c0 -5 -4 -10 -9 -10 -6 0 -13 5 -16 10 -3 6 1 10 9 10 9 0 16
-4 16 -10z m-1145 -10 c3 -5 -1 -10 -9 -10 -9 0 -16 5 -16 10 0 6 4 10 9 10 6
0 13 -4 16 -10z m-205 -12 c49 -11 100 -46 100 -67 0 -22 -98 -61 -153 -61
-48 0 -55 3 -65 25 -13 28 -16 98 -5 108 10 11 66 8 123 -5z m1160 -6 c0 -9
-15 -28 -70 -88 -43 -47 -75 -102 -100 -172 -23 -62 -35 -80 -47 -68 -9 9 24
109 53 164 34 64 104 153 129 162 27 11 35 12 35 2z m-822 -85 c-4 -24 -17
-30 -37 -18 -12 8 -12 12 -2 25 7 9 11 26 8 38 -6 23 -6 23 14 -1 11 -13 19
-33 17 -44z m190 -24 c-12 -15 -38 -17 -38 -3 0 6 -6 10 -14 10 -15 0 -28 23
-32 57 -2 19 2 18 46 -15 37 -28 46 -39 38 -49z m292 78 c0 -5 -7 -14 -15 -21
-12 -10 -15 -10 -15 2 0 8 3 18 7 21 9 10 23 9 23 -2z m383 -38 c-4 -10 -22
-39 -40 -64 -18 -26 -33 -53 -33 -62 0 -8 -7 -18 -16 -21 -9 -4 -14 -9 -10
-13 9 -9 -34 -53 -52 -53 -11 0 -13 8 -7 37 9 49 12 53 38 53 15 0 32 16 57
53 35 54 61 87 66 87 2 0 0 -8 -3 -17z m980 -35 c123 -103 127 -109 111 -126
-8 -8 -13 -19 -11 -25 4 -13 -73 -57 -101 -57 -22 0 -83 44 -112 82 -36 47
-36 87 -1 136 17 23 36 42 42 42 6 0 38 -23 72 -52z m-380 5 c-7 -2 -19 -2
-25 0 -7 3 -2 5 12 5 14 0 19 -2 13 -5z m-424 -30 c-5 -16 -23 -43 -40 -61
-30 -32 -32 -33 -48 -15 -10 10 -16 26 -13 36 6 22 49 53 82 60 14 2 26 5 27
6 1 0 -2 -11 -8 -26z m-1199 -13 c19 -16 41 -30 48 -30 6 0 12 -5 12 -11 0 -7
-11 -8 -31 -4 -22 5 -29 4 -25 -4 4 -6 12 -8 18 -5 6 4 9 1 6 -7 -14 -41 -211
-106 -243 -79 -17 14 -69 120 -62 126 3 3 35 7 72 10 37 3 81 11 99 19 47 21
68 18 106 -15z m460 16 c0 -7 -7 -19 -15 -26 -11 -9 -15 -10 -15 -1 0 8 -9 10
-22 7 -13 -3 -17 -3 -9 0 10 5 8 10 -10 20 -23 13 -21 13 24 14 33 0 47 -4 47
-14z m-187 -41 c-2 -6 6 -21 17 -33 12 -12 18 -26 15 -31 -3 -5 -1 -12 5 -16
17 -11 11 -23 -9 -18 -10 3 -33 20 -51 38 -37 38 -35 74 4 71 13 0 22 -6 19
-11z m1037 -6 c0 -29 -44 -129 -56 -129 -6 0 -30 14 -53 31 -47 34 -48 30 14
96 26 28 95 30 95 2z m135 -79 c-4 -25 -11 -53 -16 -62 -5 -9 -9 -25 -9 -35 0
-10 -7 -26 -15 -37 -14 -18 -16 -17 -60 10 -25 16 -47 36 -50 45 -16 48 59
126 119 125 l38 -1 -7 -45z m453 -30 c32 -33 55 -60 52 -61 -3 0 6 -5 20 -11
l25 -10 -23 -11 c-13 -6 -21 -16 -18 -24 3 -8 1 -11 -4 -8 -6 3 -10 2 -10 -4
0 -16 -38 -23 -60 -11 -29 16 -50 74 -50 141 0 33 3 59 6 59 3 0 31 -27 62
-60z m-1440 43 c-10 -24 -65 -93 -77 -98 -8 -3 -21 1 -29 8 -12 13 -8 20 28
56 23 22 51 41 62 41 11 0 18 -3 16 -7z m1069 -13 c6 -21 23 -28 23 -9 0 5 4
8 10 4 5 -3 6 -13 3 -23 -6 -14 -4 -15 8 -5 13 11 15 6 14 -35 -2 -41 -35
-155 -49 -170 -9 -8 -63 19 -86 43 -25 26 -22 56 11 124 10 22 19 46 19 54 0
15 20 37 33 37 5 0 11 -9 14 -20z m-1388 -22 c26 -16 26 -17 -2 -48 -31 -35
-138 -87 -208 -102 -56 -11 -60 -11 -84 12 -14 13 -25 31 -25 40 0 9 -5 21
-11 27 -19 19 -2 29 73 42 40 8 78 17 83 21 15 12 96 27 126 24 15 -1 36 -8
48 -16z m-762 -50 c-3 -8 -6 -5 -6 6 -1 11 2 17 5 13 3 -3 4 -12 1 -19z m903
-8 c12 -8 11 -11 -8 -16 -16 -5 -20 -9 -12 -14 20 -13 -16 -71 -68 -111 -65
-49 -155 -99 -184 -101 -31 -3 -69 26 -102 77 -22 35 -23 40 -8 43 52 8 130
28 152 39 14 7 31 13 38 13 18 0 109 47 118 61 4 8 9 7 16 -2 7 -12 11 -11 21
4 14 20 17 20 37 7z m1423 -47 c5 -8 17 -21 27 -31 28 -26 36 -69 15 -92 -36
-39 -167 -34 -173 7 -3 19 36 107 60 140 11 14 57 -2 71 -24z m1481 -1 c65
-28 75 -42 30 -42 -13 0 -27 -8 -33 -17 -8 -14 -14 -16 -27 -7 -30 18 -55 59
-48 77 3 9 7 17 9 17 2 0 33 -13 69 -28z m-2383 -26 c11 -22 23 -63 26 -92 l6
-51 -46 -32 c-25 -17 -50 -31 -55 -31 -5 0 -12 39 -16 86 -4 51 -14 101 -25
125 l-19 39 54 -1 c52 -2 54 -3 75 -43z m-158 -18 c37 -77 58 -155 49 -179
-10 -25 -76 -51 -109 -43 -17 5 -23 14 -25 38 -1 17 -2 40 -3 51 -2 21 -23
128 -31 157 -5 17 12 24 67 27 23 1 30 -7 52 -51z m-154 14 c7 -16 20 -74 30
-131 16 -87 17 -103 5 -108 -20 -8 -72 16 -111 50 -27 24 -33 36 -33 71 1 61
16 116 37 131 30 24 59 18 72 -13z m2867 -27 c10 -8 27 -15 36 -15 9 0 20 -5
24 -11 5 -9 -6 -10 -40 -7 -25 3 -49 2 -52 -3 -8 -14 -24 0 -24 21 0 16 11 26
31 29 3 1 14 -6 25 -14z m-2408 -24 c12 -6 22 -17 22 -24 0 -12 -71 -57 -90
-57 -9 0 -23 78 -16 89 7 11 57 7 84 -8z m-684 -48 c3 -10 5 -20 4 -23 -1 -3
4 -15 11 -28 11 -20 10 -26 -9 -42 -12 -11 -38 -24 -57 -31 -42 -13 -136 -5
-164 15 -18 12 -15 16 42 47 34 19 78 44 98 55 45 27 68 29 75 7z m-799 -3 c3
-5 1 -10 -4 -10 -6 0 -11 5 -11 10 0 6 2 10 4 10 3 0 8 -4 11 -10z m1755 -100
c19 -17 28 -30 21 -30 -7 0 -26 14 -41 30 -36 38 -25 38 20 0z m-1610 -70 c0
-5 -2 -10 -4 -10 -3 0 -8 5 -11 10 -3 6 -1 10 4 10 6 0 11 -4 11 -10z m1765
-40 c3 -5 -1 -10 -9 -10 -8 0 -18 5 -21 10 -3 6 1 10 9 10 8 0 18 -4 21 -10z
m2355 -56 c0 -14 5 -34 10 -45 9 -16 7 -19 -15 -19 -21 0 -25 5 -25 29 0 35 9
61 21 61 5 0 9 -12 9 -26z m-2131 -34 c14 0 35 -7 45 -15 17 -13 17 -15 4 -15
-9 0 -20 5 -23 10 -3 6 -26 10 -49 10 -29 0 -52 7 -67 20 l-24 20 44 -15 c24
-8 55 -15 70 -15z m2231 -5 c0 -8 -9 -15 -20 -15 -20 0 -26 11 -13 23 12 13
33 7 33 -8z m100 -23 c0 -11 -37 -32 -44 -25 -15 15 -4 33 19 33 14 0 25 -3
25 -8z m-2373 -63 c-9 -6 -15 -14 -13 -18 3 -4 -11 -5 -30 -3 -37 5 -48 -14
-11 -20 21 -4 -17 -5 -196 -6 -49 -1 -103 -5 -120 -11 -18 -5 -86 -12 -151
-15 -133 -7 -167 -16 -60 -16 38 0 98 -5 134 -11 36 -6 91 -13 123 -17 58 -7
75 -18 47 -32 -37 -19 -360 -40 -360 -24 0 3 4 14 10 24 8 15 5 19 -23 23 -98
17 -153 31 -165 44 -27 27 11 34 118 20 41 -6 49 -5 32 3 -13 5 -28 8 -33 4
-5 -3 -9 0 -9 5 0 7 61 11 182 11 196 0 379 15 443 36 22 7 54 13 70 13 25 0
27 -1 12 -10z m-1462 -89 c-3 -5 -16 -10 -28 -10 -18 0 -19 2 -7 10 20 13 43
13 35 0z m32 -26 c-3 -3 -12 -4 -19 -1 -8 3 -5 6 6 6 11 1 17 -2 13 -5z m-90
-40 c28 -13 60 -24 71 -24 10 0 34 -5 52 -12 24 -8 45 -8 79 0 173 41 176 41
251 32 150 -17 235 -31 253 -41 10 -5 67 -12 127 -16 61 -3 110 -9 110 -12 -1
-3 -10 -17 -21 -30 -19 -23 -25 -24 -122 -23 -136 3 -236 10 -389 28 -141 17
-167 13 -163 -30 2 -18 -3 -27 -16 -31 -22 -7 -49 10 -49 30 0 18 -189 83
-202 70 -2 -2 -23 14 -48 36 -35 30 -42 41 -31 48 16 10 25 8 98 -25z m-71
-49 c20 -14 43 -25 50 -25 7 0 49 -12 94 -27 91 -30 89 -44 -6 -44 -69 0 -151
37 -176 79 -10 16 -15 32 -11 36 9 8 8 9 49 -19z m1464 -60 c0 -12 -88 -26
-196 -31 -93 -4 -116 -3 -107 7 7 7 58 14 135 17 68 2 125 6 127 8 6 6 41 5
41 -1z m-737 -76 c96 -25 117 -35 117 -54 0 -8 9 -15 19 -15 11 0 23 -5 26
-11 8 -13 -135 -6 -205 9 -43 10 -41 10 34 10 96 -1 116 17 29 26 -32 3 -91 8
-131 12 l-74 6 29 18 c37 24 58 24 156 -1z m-605 -6 c12 -3 22 -9 22 -13 0 -4
23 -10 51 -14 72 -10 138 -38 152 -66 11 -20 9 -27 -15 -53 -26 -27 -33 -29
-103 -29 -41 0 -75 -3 -75 -7 0 -14 164 -54 283 -68 20 -3 40 -9 43 -14 3 -5
15 -9 28 -9 28 0 74 -21 80 -37 3 -7 2 -12 -2 -12 -21 3 -32 -3 -32 -17 0 -13
-7 -15 -32 -10 -18 4 -67 11 -108 16 -41 5 -99 14 -129 19 -29 6 -58 9 -64 8
-6 -1 -11 7 -12 17 0 15 -18 25 -80 46 -44 15 -87 30 -96 34 -10 4 -20 3 -23
-3 -7 -10 33 -31 97 -51 41 -13 49 -35 15 -43 -28 -8 -74 13 -122 55 -33 29
-37 37 -28 53 6 11 23 56 37 100 15 44 34 85 41 91 8 6 10 15 6 19 -4 4 4 5
18 1 14 -4 35 -10 48 -13z m-541 -64 c26 -16 31 -24 21 -30 -10 -7 -10 -9 0
-9 6 0 20 -8 30 -17 19 -19 63 -42 127 -66 22 -8 55 -21 73 -27 18 -7 40 -26
48 -41 8 -16 19 -29 24 -29 14 0 88 -79 106 -113 9 -16 12 -36 8 -45 -4 -10
-6 -27 -5 -39 1 -13 -8 -31 -23 -44 -14 -13 -26 -30 -26 -39 0 -23 -20 -40
-48 -40 -23 0 -92 45 -92 60 0 5 -17 26 -38 47 -20 21 -70 77 -111 126 -40 48
-77 87 -82 87 -5 0 -9 14 -9 30 0 17 -4 30 -10 30 -5 0 -16 15 -24 34 -12 29
-21 36 -53 41 -21 3 -46 8 -55 10 -10 2 -18 -1 -18 -6 0 -5 -11 -9 -25 -9 -14
0 -48 -11 -77 -25 -28 -14 -60 -25 -69 -25 -10 0 -21 -5 -25 -11 -3 -6 -15 -9
-25 -6 -11 3 -19 2 -19 -2 0 -4 -24 -17 -52 -29 -40 -16 -78 -22 -151 -24 -55
-2 -101 -6 -104 -10 -2 -5 -17 -8 -32 -8 -15 0 -32 -5 -39 -12 -7 -7 -12 -8
-12 -3 0 6 -4 3 -9 -5 -12 -18 21 -39 99 -65 77 -25 160 -64 160 -75 0 -4 6
-10 13 -12 28 -7 147 -84 147 -95 0 -7 9 -17 20 -23 11 -6 20 -17 20 -25 0 -8
7 -15 15 -15 9 0 18 -6 21 -14 3 -8 14 -16 24 -19 21 -5 30 -44 16 -69 -8 -13
-7 -21 3 -30 11 -10 14 -10 18 0 3 6 10 12 16 12 8 0 7 -4 -1 -12 -18 -18 -15
-31 6 -26 11 3 19 0 19 -8 0 -23 47 -84 66 -84 9 0 17 -4 17 -10 0 -5 13 -24
28 -42 33 -38 66 -130 57 -159 -10 -32 -88 -17 -130 25 -7 6 -24 20 -40 31
-15 11 -41 31 -57 44 -23 19 -40 23 -82 22 -55 -1 -77 7 -133 47 -17 12 -44
22 -60 22 -40 0 -74 11 -67 21 3 5 -4 9 -15 9 -14 0 -21 6 -21 19 0 14 -11 23
-37 31 -45 14 -84 31 -99 45 -58 50 -55 49 -174 50 l-115 0 -1 -25 c-1 -14 -6
-36 -11 -50 -6 -14 -13 -50 -17 -80 -6 -49 -22 -150 -32 -206 -2 -11 -13 -33
-25 -48 l-22 -27 -19 43 c-17 38 -18 57 -12 173 6 121 28 233 85 435 6 19 19
73 29 120 12 57 30 103 52 137 45 70 58 76 110 58 55 -19 220 -20 290 -1 29 8
84 26 121 40 42 15 82 23 102 21 30 -4 123 23 190 55 18 9 116 25 169 29 10 0
34 -9 53 -20z m2133 -4 c0 -8 -63 -62 -124 -108 -28 -20 -80 -66 -116 -100
-108 -103 -150 -119 -150 -55 0 24 14 44 68 97 72 71 139 112 242 147 71 25
80 27 80 19z m932 -5 c21 -6 37 -14 35 -18 -1 -4 8 -18 20 -31 19 -20 20 -26
8 -37 -17 -18 -60 -18 -77 0 -22 22 -57 29 -74 15 -11 -9 -18 -9 -26 -1 -7 7
-2 21 18 46 31 39 40 41 96 26z m-4090 -80 c-9 -16 -20 -30 -24 -30 -5 0 -8
-5 -8 -10 0 -6 -11 -33 -25 -62 -14 -28 -25 -60 -25 -70 0 -10 -4 -18 -10 -18
-5 0 -10 -20 -10 -45 0 -25 -4 -53 -10 -63 -15 -25 -60 -197 -60 -226 0 -15
-4 -26 -9 -26 -5 0 -11 -12 -14 -27 -2 -16 -4 97 -5 249 -2 152 0 295 4 317
l7 41 103 0 103 0 -17 -30z m4574 -51 c10 -16 -16 -36 -56 -43 -33 -7 -34 -6
-16 9 11 8 26 15 33 15 7 0 13 7 13 15 0 17 16 20 26 4z m-716 -23 c0 -9 -40
-13 -46 -5 -3 5 6 9 20 9 14 0 26 -2 26 -4z m-1736 -31 c32 -14 35 -17 24 -35
-17 -27 -23 -26 -65 15 -31 30 -33 35 -16 35 11 0 37 -7 57 -15z m1621 -74
c-19 -54 -129 -159 -315 -299 -41 -31 -76 -60 -78 -64 -2 -4 -8 -8 -13 -8 -5
0 -27 -17 -48 -37 -20 -21 -46 -44 -57 -51 -223 -144 -343 -176 -344 -92 0 36
245 250 288 250 6 0 12 5 12 10 0 6 5 10 10 10 6 0 36 16 66 35 30 19 58 35
63 35 5 0 55 34 112 76 57 42 114 81 127 87 12 6 22 13 22 17 0 11 82 48 123
55 20 4 37 12 37 18 0 6 2 8 5 5 3 -3 -2 -24 -10 -47z m-2118 33 c-3 -3 -12
-4 -19 -1 -8 3 -5 6 6 6 11 1 17 -2 13 -5z m1724 -41 c-11 -22 -58 -63 -70
-63 -5 0 -29 -18 -52 -40 -24 -22 -46 -40 -50 -40 -3 0 -26 -20 -50 -45 -36
-38 -104 -73 -116 -62 -5 6 46 69 69 85 13 9 31 26 41 38 9 13 34 33 55 45 20
13 39 25 42 29 11 12 76 57 90 63 8 3 23 6 33 6 14 1 16 -3 8 -16z m-1152
-129 c2 -2 -3 -4 -12 -4 -9 0 -18 -4 -22 -9 -8 -14 23 -41 46 -41 11 0 39 -9
61 -20 23 -11 49 -20 59 -20 9 0 22 -7 29 -15 16 -19 14 -19 -88 6 -127 31
-192 69 -178 104 5 13 15 15 53 9 27 -3 50 -8 52 -10z m1845 -36 c-4 -18 -7
-41 -6 -51 0 -9 -12 -27 -28 -39 -16 -11 -41 -41 -56 -64 -16 -24 -36 -46 -46
-50 -9 -3 -27 -18 -38 -35 -12 -16 -27 -29 -34 -29 -7 0 -26 -12 -43 -27 -52
-48 -73 -63 -88 -63 -8 0 -15 -4 -15 -8 0 -12 -56 -42 -78 -42 -11 0 -25 7
-33 16 -10 13 -10 17 2 25 8 5 11 9 7 9 -4 0 -2 13 3 30 7 20 22 33 45 42 25
9 34 18 34 35 0 13 6 23 14 23 7 0 19 7 27 16 8 9 21 13 35 10 13 -4 26 -1 31
6 4 7 22 20 38 29 17 9 38 32 47 50 10 19 24 39 31 44 8 6 22 23 32 39 11 16
37 37 60 47 59 27 68 25 59 -13z m-2033 1 c8 -15 8 -24 0 -32 -15 -15 -44 14
-35 36 8 23 21 21 35 -4z m246 15 c-3 -3 -12 -4 -19 -1 -8 3 -5 6 6 6 11 1 17
-2 13 -5z m-217 -84 c0 -11 6 -20 13 -20 9 0 14 -13 15 -37 l1 -38 -18 41
c-11 23 -24 45 -30 48 -16 10 -14 26 4 26 8 0 15 -9 15 -20z m765 -186 c9 -9
14 -23 11 -31 -3 -8 -6 -21 -6 -28 0 -8 -8 -16 -18 -19 -9 -3 -26 -22 -37 -41
-10 -20 -43 -59 -72 -88 -29 -28 -53 -56 -53 -62 -1 -10 -56 -75 -65 -75 -2 0
-21 -17 -42 -37 -51 -52 -65 -52 -57 0 4 23 14 56 24 72 10 17 20 42 24 56 18
77 194 269 246 269 16 0 36 -7 45 -16z m-270 -31 c25 -38 34 -83 15 -83 -6 0
-18 18 -27 40 -10 22 -26 43 -35 46 -19 6 -23 16 -11 27 15 15 34 5 58 -30z
m3237 -255 c-7 -7 -12 -8 -12 -2 0 14 12 26 19 19 2 -3 -1 -11 -7 -17z m-6
-21 c11 -6 11 -12 2 -27 -9 -14 -9 -27 1 -58 8 -24 14 -99 15 -203 1 -148 -1
-167 -19 -194 -52 -80 -94 -118 -180 -166 -84 -47 -93 -50 -140 -45 -148 18
-202 34 -345 102 -80 39 -158 76 -175 83 -29 12 -29 13 -10 27 10 8 27 14 37
14 45 0 79 31 113 103 18 40 37 84 40 100 4 15 11 30 16 33 5 3 9 16 9 29 0
13 4 26 9 29 5 3 12 25 15 50 9 59 29 85 53 70 10 -6 32 -9 50 -7 27 4 34 1
47 -26 9 -17 12 -31 7 -31 -15 0 -20 -51 -5 -57 17 -6 64 23 64 40 0 23 36 37
71 27 19 -6 42 -7 51 -4 12 4 18 0 18 -11 0 -9 9 -25 20 -37 16 -18 22 -19 35
-8 14 12 14 15 -1 37 -8 14 -14 26 -12 27 22 14 64 25 78 21 13 -4 20 1 25 15
4 11 11 17 17 14 7 -5 9 -1 5 9 -4 11 2 17 24 22 22 5 29 11 24 23 -3 8 0 19
7 23 8 5 15 3 17 -4 2 -7 10 -16 17 -20z m-2556 -52 c0 -19 -24 -29 -47 -20
-16 6 -15 8 7 20 32 18 40 18 40 0z m-78 -60 c-2 -11 -12 -27 -23 -37 -10 -9
-19 -21 -19 -27 0 -6 -9 -11 -21 -11 -11 0 -18 -3 -16 -7 3 -5 -9 -9 -26 -10
-24 -2 -28 0 -17 7 13 8 12 10 -2 10 -25 0 -22 12 10 41 65 60 120 76 114 34z
m2218 -26 c0 -11 -4 -17 -10 -14 -5 3 -10 13 -10 21 0 8 5 14 10 14 6 0 10 -9
10 -21z m-5424 -111 c50 -45 118 -105 152 -131 34 -27 62 -53 62 -59 0 -5 4
-7 8 -4 4 2 18 -4 32 -14 20 -15 22 -20 11 -34 -12 -14 -11 -16 5 -17 11 0 14
-3 6 -6 -6 -2 -9 -10 -5 -16 19 -29 28 -117 20 -201 -6 -58 -5 -97 2 -110 10
-20 15 -54 12 -84 -1 -7 -9 -12 -18 -10 -27 4 -43 -10 -43 -38 l0 -24 -185 0
-185 0 0 432 c0 410 1 431 18 416 9 -9 58 -54 108 -100z m1920 -305 c-30 -60
-51 -179 -38 -213 5 -14 13 -48 16 -75 5 -33 19 -69 41 -100 18 -28 30 -51 25
-53 -21 -8 -50 22 -77 75 -26 53 -28 67 -28 168 1 84 5 117 18 140 9 17 17 41
17 56 0 27 16 49 37 49 8 0 5 -15 -11 -47z m2915 -21 c-6 -10 -7 -29 -4 -42 5
-19 3 -22 -10 -17 -10 4 -17 2 -17 -4 0 -6 -4 -8 -10 -4 -5 3 -7 11 -4 18 3 9
-8 14 -33 15 -20 2 -39 5 -42 7 -6 7 82 44 107 44 19 1 21 -2 13 -17z m-3847
-78 c28 -19 45 -24 64 -19 42 11 70 8 107 -9 19 -9 51 -23 71 -32 24 -12 31
-19 23 -25 -10 -6 -10 -11 0 -23 16 -19 33 -12 24 9 -3 10 1 15 11 15 26 0 15
-51 -18 -84 l-29 -29 -19 22 c-10 13 -18 29 -18 37 0 8 -6 11 -15 8 -8 -4 -15
-1 -15 6 0 26 -41 45 -98 45 -49 0 -58 -3 -67 -23 -13 -29 -51 -29 -66 0 -11
20 -13 20 -24 5 -7 -9 -17 -17 -22 -17 -11 0 -33 43 -33 64 0 16 59 76 75 76
6 0 28 -12 49 -26z m3813 -51 c-3 -10 -5 -4 -5 12 0 17 2 24 5 18 2 -7 2 -21
0 -30z m-267 7 c-8 -5 -19 -10 -25 -10 -5 0 -3 5 5 10 8 5 20 10 25 10 6 0 3
-5 -5 -10z m-37 -30 c3 -13 0 -20 -9 -20 -8 0 -14 2 -14 4 0 2 -3 11 -6 20 -4
10 -1 16 9 16 8 0 17 -9 20 -20z m347 16 c0 -3 -4 -8 -10 -11 -5 -3 -10 -1
-10 4 0 6 5 11 10 11 6 0 10 -2 10 -4z m-382 -28 c-3 -7 -15 -14 -27 -16 -12
-2 -21 -8 -19 -14 2 -5 6 -8 9 -6 3 2 13 -3 22 -11 10 -7 17 -9 17 -3 0 5 11
12 25 14 14 3 25 1 25 -3 0 -5 -6 -9 -14 -9 -8 0 -16 -7 -20 -15 -4 -11 1 -15
17 -15 12 0 31 -11 41 -25 10 -14 24 -22 30 -18 6 4 18 8 26 8 8 1 25 2 38 3
12 1 22 8 22 16 0 24 30 27 71 6 30 -16 44 -18 59 -10 11 6 20 15 20 20 0 19
17 10 28 -14 8 -17 6 -41 -6 -95 l-16 -71 -351 0 -350 0 -45 26 c-25 15 -89
49 -143 75 -54 27 -100 56 -103 64 -3 8 4 28 16 45 17 23 27 29 42 24 11 -3
44 -7 72 -9 28 -1 67 -5 86 -9 19 -4 49 -8 65 -10 17 -2 51 -11 77 -19 l47
-15 83 41 c72 34 118 52 151 56 5 1 7 -5 5 -11z"/>
<path d="M6426 7108 c36 -61 100 -107 183 -133 38 -12 16 11 -36 37 -26 13
-67 42 -92 66 -43 41 -70 55 -55 30z"/>
<path d="M7257 6973 c-11 -11 27 -32 58 -33 38 0 111 25 97 34 -6 3 -32 2 -58
-4 -33 -8 -50 -8 -58 0 -11 11 -30 13 -39 3z"/>
<path d="M9280 6810 c0 -5 8 -10 18 -10 10 0 31 -13 47 -30 29 -30 45 -38 45
-21 0 21 -59 71 -84 71 -14 0 -26 -4 -26 -10z"/>
<path d="M8430 6760 c0 -5 21 -21 48 -35 80 -43 140 -89 152 -117 13 -29 37
-54 45 -46 3 2 -4 23 -15 46 -16 32 -40 55 -111 102 -88 58 -119 71 -119 50z"/>
<path d="M8510 6650 c0 -5 9 -15 20 -22 11 -7 20 -17 20 -23 0 -6 9 -16 20
-23 33 -20 25 15 -11 49 -32 30 -49 36 -49 19z"/>
<path d="M8250 6581 c0 -6 5 -13 10 -16 6 -3 10 1 10 9 0 9 -4 16 -10 16 -5 0
-10 -4 -10 -9z"/>
<path d="M8280 6526 c0 -9 5 -16 10 -16 6 0 10 4 10 9 0 6 -4 13 -10 16 -5 3
-10 -1 -10 -9z"/>
<path d="M8815 6330 c-3 -6 -3 -20 1 -32 3 -12 6 -41 6 -64 -1 -49 9 -56 67
-48 28 4 47 0 65 -11 21 -14 43 -17 111 -13 89 5 117 16 97 40 -11 13 -81 41
-133 52 -14 3 -38 17 -55 31 -47 40 -145 68 -159 45z"/>
<path d="M8055 6170 c-3 -5 -2 -10 4 -10 5 0 13 5 16 10 3 6 2 10 -4 10 -5 0
-13 -4 -16 -10z"/>
<path d="M8855 6104 c-38 -8 -88 -17 -110 -20 -22 -4 -44 -10 -49 -15 -6 -5
-22 -9 -37 -9 -25 0 -66 -14 -134 -45 -140 -64 -188 -85 -197 -85 -18 0 -68
-41 -62 -51 3 -5 17 -1 32 9 15 11 45 25 67 32 22 7 65 26 96 42 31 15 62 28
68 28 6 0 33 11 59 24 26 13 79 29 117 35 39 7 84 17 101 22 17 5 48 9 70 9
51 0 116 18 109 31 -8 12 -45 10 -130 -7z"/>
<path d="M8390 6070 c-12 -8 -10 -10 8 -10 30 0 20 -16 -15 -25 -15 -3 -30
-10 -33 -14 -3 -4 -30 -19 -60 -33 -134 -62 -335 -263 -316 -315 4 -11 15 -1
39 34 38 56 139 159 200 202 23 17 91 51 152 76 60 25 116 51 124 59 12 13 11
16 -12 21 -14 4 -31 4 -37 0 -6 -4 -16 -2 -23 4 -8 6 -18 6 -27 1z"/>
<path d="M5528 6095 c-3 -4 -30 -9 -60 -12 -29 -3 -61 -9 -70 -14 -9 -5 -26
-9 -37 -9 -12 0 -21 -7 -21 -15 0 -16 14 -15 85 5 55 16 208 22 259 10 53 -12
81 -1 58 22 -13 13 -202 24 -214 13z"/>
<path d="M12480 6347 c0 -24 -46 -37 -108 -31 -53 6 -60 4 -111 -29 -43 -29
-58 -34 -77 -27 -29 11 -43 6 -113 -38 -40 -25 -61 -33 -84 -29 -39 5 -85 -14
-114 -47 -13 -14 -31 -26 -42 -26 -10 0 -29 -8 -42 -19 -22 -17 -37 -21 -122
-35 -43 -8 -49 -15 -45 -60 3 -35 0 -41 -16 -41 -13 0 -23 11 -31 35 -14 41
-46 50 -94 26 -26 -14 -30 -21 -28 -52 2 -29 -3 -40 -24 -56 -26 -19 -28 -19
-53 -3 -15 10 -33 29 -40 42 -12 24 -13 24 -47 -42 -19 -37 -40 -70 -46 -72
-7 -3 -13 -11 -13 -19 0 -8 -4 -14 -8 -14 -16 0 -42 36 -42 58 0 15 -8 24 -24
28 -40 10 -61 1 -64 -28 -2 -14 -11 -33 -22 -43 -17 -15 -20 -15 -50 2 -82 46
-80 45 -111 33 -16 -7 -29 -16 -29 -20 0 -21 -55 -20 -96 1 l-42 23 -43 -20
c-32 -14 -68 -19 -134 -20 -133 -2 -251 -24 -270 -50 -13 -20 -12 -24 15 -53
17 -17 30 -38 30 -46 0 -29 60 -55 128 -55 40 0 62 4 62 12 0 7 7 5 18 -5 27
-24 88 -32 95 -13 8 21 34 20 46 -1 8 -15 13 -15 33 -6 23 12 76 12 95 0 6 -4
14 1 17 10 6 14 9 14 26 -4 15 -17 29 -20 81 -17 35 1 89 -4 123 -13 48 -12
94 -15 216 -10 85 3 207 1 270 -4 63 -5 157 -11 209 -13 73 -2 97 -7 106 -20
15 -20 61 -21 69 -1 4 11 13 14 33 8 16 -3 37 -6 48 -5 11 1 36 -6 55 -15 24
-11 35 -12 38 -4 2 6 10 11 17 11 8 0 20 9 28 21 13 17 21 19 53 13 22 -4 44
-15 51 -24 17 -24 67 -15 60 11 -3 9 4 32 15 50 18 29 18 33 4 41 -9 5 -16 16
-16 23 0 8 -6 15 -12 15 -10 0 -9 3 1 9 16 10 6 31 -15 31 -7 0 -19 9 -26 20
-7 11 -23 20 -35 20 -17 0 -24 7 -29 28 -3 15 -7 33 -10 40 -7 24 -5 27 18 33
28 7 58 -6 58 -26 0 -9 10 -15 25 -15 31 0 42 37 26 90 -6 20 -11 40 -11 44 0
12 46 6 68 -10 21 -14 22 -14 22 5 0 17 6 21 31 21 27 0 30 3 27 28 -3 23 1
27 22 27 17 0 29 -8 37 -26 11 -22 22 -28 63 -33 28 -4 55 -4 60 -1 6 4 13 -1
16 -9 9 -22 24 -9 24 20 0 13 5 24 10 24 6 0 10 -18 10 -39 0 -34 -4 -41 -30
-53 -31 -14 -45 -56 -14 -44 8 3 26 3 40 0 35 -9 27 -50 -10 -47 -20 1 -26 -3
-26 -18 0 -12 7 -19 20 -19 11 0 20 -4 20 -10 0 -5 -5 -10 -11 -10 -5 0 -7 -5
-3 -12 4 -6 -1 -17 -11 -24 -10 -7 -15 -20 -12 -28 4 -9 -2 -16 -15 -19 -17
-5 -19 -2 -14 17 4 18 0 26 -18 34 -13 6 -27 20 -31 31 -7 22 10 61 25 61 6 0
10 5 10 10 0 6 -13 10 -30 10 -16 0 -30 -5 -30 -10 0 -6 -11 -23 -25 -38 -14
-15 -25 -30 -25 -34 0 -11 47 -81 74 -108 13 -14 26 -34 28 -45 6 -36 35 -29
65 17 15 24 35 51 45 61 10 10 18 25 19 35 0 10 5 6 11 -10 12 -34 58 -37 58
-3 1 29 24 55 49 55 26 0 27 8 4 26 -17 12 -17 14 5 34 25 24 28 31 10 26 -7
-1 -10 -1 -5 1 4 3 7 12 8 21 0 11 2 12 6 5 5 -15 63 -18 63 -3 0 5 9 18 21
29 19 18 20 23 9 57 -10 29 -10 39 -1 42 8 3 5 14 -9 37 -15 24 -18 39 -12 55
8 21 9 22 16 5 6 -15 10 -11 28 24 l21 43 -21 17 c-11 9 -22 27 -24 41 -2 15
-9 24 -17 22 -8 -2 -11 3 -8 12 11 29 -16 46 -83 52 -36 3 -74 9 -85 14 -11 4
-33 13 -49 19 -29 12 -66 7 -66 -10 0 -14 -68 -11 -93 5 -34 21 -97 30 -97 13z
m147 -295 c9 -6 7 -11 -7 -20 -20 -12 -36 -1 -25 18 7 12 16 12 32 2z m-343
-357 c3 -9 0 -15 -9 -15 -8 0 -15 7 -15 15 0 8 4 15 9 15 5 0 11 -7 15 -15z"/>
<path d="M13041 6034 c0 -11 3 -14 6 -6 3 7 2 16 -1 19 -3 4 -6 -2 -5 -13z"/>
<path d="M12460 5901 c0 -10 7 -22 16 -25 19 -7 17 -8 33 22 11 20 10 22 -19
22 -23 0 -30 -5 -30 -19z"/>
<path d="M12945 5840 c-3 -5 -1 -10 4 -10 6 0 11 5 11 10 0 6 -2 10 -4 10 -3
0 -8 -4 -11 -10z"/>
<path d="M9595 5790 c-3 -5 1 -10 10 -10 9 0 13 5 10 10 -3 6 -8 10 -10 10 -2
0 -7 -4 -10 -10z"/>
<path d="M12326 5744 c-10 -25 -8 -28 25 -43 16 -7 28 -16 25 -19 -3 -3 -1
-11 5 -19 9 -9 8 -17 -1 -28 -13 -16 -6 -35 14 -35 8 0 11 10 8 30 -3 25 -1
29 12 24 21 -8 20 -50 -1 -59 -17 -6 -17 -7 1 -21 30 -21 76 -18 76 5 0 11 -6
21 -12 24 -10 3 -8 9 5 24 9 11 17 27 17 35 0 9 5 18 12 20 7 3 8 10 4 17 -6
10 -16 4 -38 -19 -16 -18 -30 -31 -32 -29 -1 2 -8 19 -15 37 -8 19 -20 32 -31
32 -10 0 -20 9 -23 20 -6 24 -42 27 -51 4z"/>
<path d="M12520 5549 c0 -5 5 -7 10 -4 6 3 10 8 10 11 0 2 -4 4 -10 4 -5 0
-10 -5 -10 -11z"/>
<path d="M12203 5543 c9 -2 23 -2 30 0 6 3 -1 5 -18 5 -16 0 -22 -2 -12 -5z"/>
<path d="M12000 4707 c0 -10 8 -17 18 -17 9 0 13 4 7 8 -5 4 -13 11 -17 16 -5
5 -8 2 -8 -7z"/>
<path d="M12196 4699 c-15 -9 -16 -13 -5 -20 23 -15 39 -10 39 11 0 23 -7 24
-34 9z"/>
<path d="M12270 4700 c0 -5 7 -10 15 -10 8 0 15 5 15 10 0 6 -7 10 -15 10 -8
0 -15 -4 -15 -10z"/>
<path d="M10328 4624 c-19 -22 -19 -74 0 -74 17 0 24 21 20 60 -3 31 -4 32
-20 14z"/>
<path d="M10920 4557 c0 -18 38 -67 51 -67 19 0 21 31 3 46 -38 29 -54 36 -54
21z"/>
<path d="M10871 4448 c-1 -21 4 -28 18 -28 11 0 28 -12 38 -26 17 -23 22 -25
41 -15 25 13 30 51 7 51 -8 0 -15 7 -15 15 0 11 -5 12 -26 5 -37 -14 -52 -12
-57 8 -3 10 -5 6 -6 -10z"/>
<path d="M9921 4734 c0 -11 3 -14 6 -6 3 7 2 16 -1 19 -3 4 -6 -2 -5 -13z"/>
<path d="M4920 2355 c0 -8 2 -15 4 -15 2 0 6 7 10 15 3 8 1 15 -4 15 -6 0 -10
-7 -10 -15z"/>
</g>
</svg>
